<svg width="20" height="25" viewBox="0 0 20 25" fill="none" xmlns="http://www.w3.org/2000/svg">
<path d="M6.52655 24.4707C2.95463 24.4501 0 17.1586 0 13.4453C0 7.37944 4.55039 6.05147 6.30408 6.05147C7.09439 6.05147 7.93828 6.36183 8.68261 6.63647C9.20311 6.82805 9.74142 7.02581 10.0408 7.02581C10.22 7.02581 10.6423 6.85758 11.0152 6.70997C11.8103 6.39342 12.7997 6 13.9519 6C13.954 6 13.9567 6 13.9588 6C14.8191 6 17.4277 6.18881 18.996 8.544L19.3634 9.09605L18.8347 9.495C18.0794 10.0649 16.7012 11.1045 16.7012 13.1638C16.7012 15.6027 18.262 16.5407 19.0118 16.9918C19.3428 17.1909 19.6854 17.3962 19.6854 17.8453C19.6854 18.1385 17.3453 24.4343 13.9471 24.4343C13.1156 24.4343 12.5278 24.1844 12.0094 23.964C11.4848 23.7408 11.0323 23.5486 10.2845 23.5486C9.90548 23.5486 9.42619 23.7278 8.91877 23.918C8.22534 24.1768 7.44047 24.4707 6.54989 24.4707H6.52655Z" fill="white"/>
<path d="M14.0691 0C14.1576 3.19106 11.8755 5.40488 9.5961 5.26603C9.22049 2.71945 11.8753 0 14.0691 0Z" fill="white"/>
</svg>
