<svg width="12" height="12" viewBox="0 0 12 12" fill="none" xmlns="http://www.w3.org/2000/svg">
<path fill-rule="evenodd" clip-rule="evenodd" d="M9.71423 4.95245L10.6667 4.00002C11.403 3.26364 11.403 2.06973 10.6667 1.33335C9.93029 0.596973 8.73638 0.596971 8 1.33335L7.03167 2.30168C7.66122 3.41183 8.58864 4.33198 9.71423 4.95245ZM5.57682 3.75654L1.52305 7.81031L1.52303 7.81032C1.09798 8.23537 0.885455 8.4479 0.745722 8.70899C0.605987 8.97009 0.547042 9.26482 0.429151 9.85427L0.147089 11.2646C0.0805664 11.5972 0.0473054 11.7635 0.141913 11.8581C0.236521 11.9527 0.402827 11.9195 0.735437 11.8529L2.14575 11.5709C2.7352 11.453 3.02993 11.394 3.29103 11.2543C3.55212 11.1146 3.76465 10.902 4.18971 10.477L8.25558 6.41111C7.18141 5.72546 6.26871 4.81885 5.57682 3.75654Z" fill="white"/>
</svg>
