<svg width="12" height="11" viewBox="0 0 12 11" fill="none" xmlns="http://www.w3.org/2000/svg">
<path fill-rule="evenodd" clip-rule="evenodd" d="M4.35027 1.9921L8.68083 0.712791C10.3611 0.216429 11.2012 -0.0317514 11.6229 0.421702C12.0446 0.875156 11.7362 1.69508 11.1194 3.33493L9.57004 7.45429C8.78358 9.54528 8.39035 10.5908 7.69807 10.5908C7.0058 10.5908 6.61257 9.54528 5.8261 7.45429L5.6216 6.91057C5.56068 6.74861 5.51115 6.61693 5.46469 6.50739L8.83543 3.5201C9.04209 3.33695 9.06115 3.02094 8.878 2.81428C8.69485 2.60761 8.37884 2.58856 8.17218 2.77171L4.71199 5.83827C4.61032 5.80506 4.49153 5.76997 4.35027 5.72824C1.85355 4.99067 0.60519 4.62189 0.558633 3.92702C0.555651 3.8825 0.555651 3.83783 0.558633 3.79332C0.60519 3.09845 1.85355 2.72966 4.35027 1.9921Z" fill="white"/>
</svg>
