<svg width="47" height="47" viewBox="0 0 47 47" fill="none" xmlns="http://www.w3.org/2000/svg">
<path d="M23.5 0.583374C10.85 0.583374 0.583374 10.85 0.583374 23.5C0.583374 36.15 10.85 46.4167 23.5 46.4167C36.15 46.4167 46.4167 36.15 46.4167 23.5C46.4167 10.85 36.15 0.583374 23.5 0.583374ZM23.5 41.8334C13.3938 41.8334 5.16671 33.6063 5.16671 23.5C5.16671 13.3938 13.3938 5.16671 23.5 5.16671C33.6063 5.16671 41.8334 13.3938 41.8334 23.5C41.8334 33.6063 33.6063 41.8334 23.5 41.8334ZM17.7709 33.8125L33.8125 23.5L17.7709 13.1875V33.8125Z" fill="white"/>
</svg>
